PathFileType	4	(X/Y/Z)	RBDS020\RBDS020runT35.trc
DataRate	CameraRate	NumFrames	NumMarkers	Units	OrigDataRate	OrigDataStartFrame	OrigNumFrames
150.000000	150.000000	4	33	mm	150.000000	2812	4500
Frame#	Time	L.ASIS			L.Heel.Bottom			L.Heel.Lateral			L.Heel.Top			L.Iliac.Crest			L.MT1			L.MT5			L.PSIS			L.Shank.Bottom.Lateral			L.Shank.Bottom.Medial			L.Shank.Top.Lateral			L.Shank.Top.Medial			L.Thigh.Bottom.Lateral			L.Thigh.Bottom.Medial			L.Thigh.Top.Lateral			L.Thigh.Top.Medial			R.ASIS			R.ASY			R.Heel.Bottom			R.Heel.Lateral			R.Heel.Top			R.Iliac.Crest			R.MT1			R.MT5			R.PSIS			R.Shank.Bottom.Lateral			R.Shank.Bottom.Medial			R.Shank.Top.Lateral			R.Shank.Top.Medial			R.Thigh.Bottom.Lateral			R.Thigh.Bottom.Medial			R.Thigh.Top.Lateral			R.Thigh.Top.Medial			
		X1	Y1	Z1	X2	Y2	Z2	X3	Y3	Z3	X4	Y4	Z4	X5	Y5	Z5	X6	Y6	Z6	X7	Y7	Z7	X8	Y8	Z8	X9	Y9	Z9	X10	Y10	Z10	X11	Y11	Z11	X12	Y12	Z12	X13	Y13	Z13	X14	Y14	Z14	X15	Y15	Z15	X16	Y16	Z16	X17	Y17	Z17	X18	Y18	Z18	X19	Y19	Z19	X20	Y20	Z20	X21	Y21	Z21	X22	Y22	Z22	X23	Y23	Z23	X24	Y24	Z24	X25	Y25	Z25	X26	Y26	Z26	X27	Y27	Z27	X28	Y28	Z28	X29	Y29	Z29	X30	Y30	Z30	X31	Y31	Z31	X32	Y32	Z32	X33	Y33	Z33	

2813	18.74666666666667	2260.071448718424	1055.337662554804	931.3430803522788	2336.905048905006	53.86766840201842	1004.035115655735	2350.701848416048	77.02747163367255	957.0070448474913	2336.158846280387	101.8288956744637	1000.486354267849	2203.228966178138	1106.694698477418	885.0754111389834	2549.509611793685	113.7443240687855	1003.182479688003	2504.53918049711	88.83698789870351	904.785700713324	2107.305983645185	1098.445257651952	979.7311323069932	2378.423984272035	210.0091164589953	924.1884040349357	2340.916133919266	210.5822171711989	965.2479588013964	2358.887221943037	286.5087253073367	906.6127512757595	2323.607108365618	287.9355437378774	947.2841619193127	2290.480953677591	715.773897232211	859.1221258672717	2234.141939578947	689.7905894546282	896.9374500171764	2239.932606777758	812.2796808179168	848.8611941531003	2185.767314638528	787.7858556006715	884.754959356164	2261.541766336225	1029.385271565038	1152.057843929497	1757.550026683896	156.2175574587417	1108.221880971811	1611.222078416049	287.6114100102052	1098.604466901762	1636.844902917667	271.1489324222902	1143.210897417995	1651.213374138994	303.5029508963825	1102.06450254879	2226.200546457334	1092.325205674964	1173.150573634226	1738.231165908474	118.5536985734425	1058.381804007284	1711.621907558538	124.1446067228433	1164.673014454804	2109.10774774576	1099.311086844543	1079.335646689854	1773.02029191575	324.3417017745743	1162.579631403481	1745.401490531655	356.896260080895	1133.973424016822	1829.69835905629	386.594981230928	1175.197564315268	1796.472271049226	418.1507733839164	1148.08163740019	2049.196580050873	694.86362015704	1183.28671186633	1999.541907018564	713.8944174737578	1135.916074771199	2076.124209467589	801.830001189155	1194.748299012515	2030.464931451843	818.657339023471	1146.841275658925	
2814	18.75333333333333	2259.76375277796	1054.968993397075	930.7107701528223	2353.921220059319	49.13994133501185	1004.817759120585	2366.571500244479	72.5784686870935	957.6519107869946	2350.461410733325	97.01470099957285	1000.735480365094	2202.767217631141	1106.05538177991	884.7463428422045	2563.179867904094	120.920361635545	1004.228378353681	2520.170668681912	92.27675400860424	905.9583420908788	2107.15174363383	1097.997926329164	980.2040248387368	2387.536932949391	208.2375696437462	924.5927162860427	2350.177822807328	207.3451745673814	965.8489095894585	2364.950497721296	283.8505267515922	907.173115810298	2329.644989498459	283.9694608019246	947.9770524357619	2286.509591466949	713.5772481709521	858.0250087507175	2230.738596253968	688.5908544202304	897.2957617995778	2236.98299718957	810.6822864009916	848.0261493692529	2183.268301858366	787.110719931394	885.2265712892754	2262.431808671345	1029.365517625639	1151.570164179115	1746.390930861269	166.0195928808016	1108.853133259214	1604.604019841224	302.0627275959203	1098.488288270095	1629.617592432503	284.8594801110176	1143.174689028636	1645.099565954217	316.5290933910071	1101.965085933582	2226.344065762173	1092.686908002405	1173.114914499232	1725.862373017935	128.7734117836979	1059.061681415674	1699.308588528942	135.4407366643553	1165.211791482137	2109.505822915906	1099.043203743337	1079.973651232764	1767.782659993026	332.8032415343782	1162.623777833371	1741.432058515081	366.4742819373674	1134.068313687081	1826.81593404913	392.7500378003944	1175.266392975815	1794.856527539434	425.6278125610577	1148.218645878978	2053.427753418806	692.6372806752518	1183.625240882318	2002.960303417801	711.5703270077762	1137.049911634582	2079.632624892415	799.7354597035343	1195.494415889015	2032.921176638939	816.529330871997	1148.556524100838	
2815	18.76	2259.190777536487	1054.374037255792	929.8651641731567	2367.761449542347	45.09052353960399	1005.893376851501	2379.363968836652	68.67900537400617	958.5574534219683	2361.904891585984	92.80624601533897	1001.241160165664	2201.837966539698	1105.000847925263	884.3893365521333	2573.709016969908	127.3506835748604	1005.346690757677	2532.544353008001	95.23404089758267	907.3030105130778	2106.746071568287	1096.841868721229	980.8445921718313	2394.382156035324	206.5961951180253	925.1736450401024	2357.241758326862	204.4897112260461	966.6509741186503	2369.279156820218	281.373632686194	907.9150085449774	2334.028464386533	280.4206883881513	948.8831524901395	2282.761229126178	711.3828172576679	857.1100228635254	2227.53162424855	687.2762829279933	897.6575848244705	2234.102869228545	808.9959737909001	847.2953973319995	2180.84106511856	786.2435664799017	885.6663302111111	2263.268662992853	1028.911867990254	1150.992093760253	1736.286981727352	175.9068508547867	1109.512197324625	1599.315268660847	316.3815514861633	1097.775320543031	1623.539301156815	298.5575587592977	1142.643245061277	1640.234556455247	329.3919915120662	1101.352521572088	2226.291228815614	1092.385771560459	1173.153754345366	1714.685722079317	139.0956974663177	1059.748375273703	1687.936381784111	147.0993771187226	1165.69469826874	2109.763243954153	1097.914537396596	1080.71008571116	1763.507572232576	341.278371463922	1162.434410380232	1738.63221100162	375.9362660106231	1133.71804175582	1824.874795298721	398.7778875216158	1175.136634524097	1794.393353076386	432.8741502468667	1147.907869125371	2058.218074280293	689.4585405783143	1184.000050391521	2007.002556522169	708.0731575680566	1138.082963679691	2083.338531590925	796.7879771945127	1196.149833753922	2035.645120888867	813.331722087659	1150.058987284704	
2816	18.76666666666667	2258.37882449427	1053.559964818282	928.828911968011	2378.145903079005	41.54483119123376	1007.237549319829	2388.857860853022	65.16383340899753	959.7120025382292	2370.306270725756	89.06636787585559	1002.012095278464	2200.484262185549	1103.571494713196	884.0341146780655	2581.08193089476	132.5079113176558	1006.55148052557	2541.536994416909	97.30646160963391	908.8100116357026	2106.133874003398	1095.025066043936	981.6429007834842	2398.930552605407	204.864854312482	925.9184722681798	2362.037797467084	201.807287407201	967.6225030972852	2371.862921172385	278.9216604805782	908.8017931704131	2336.716083179282	277.1386029091904	949.9508872150135	2279.302913836621	709.1783230661816	856.4850530757365	2224.526615135413	685.8329036593458	898.0633845472868	2231.359097010508	807.2127276921073	846.7411079345447	2178.51690190275	785.1790022893978	886.1036318549551	2264.047006149026	1028.013148216823	1150.315355829612	1727.360125207729	185.7516795148341	1110.226923760407	1595.586956408701	330.5480247728236	1096.486324901581	1618.840867754067	312.229643277458	1141.636461655815	1636.866426539731	342.0490869399088	1100.244827008988	2226.137563335099	1091.427206942911	1173.247274011812	1704.805236930712	149.3820497643222	1060.48277036082	1677.64495117987	159.0247085855759	1166.143010505288	2109.918729194485	1095.970804594659	1081.541155507902	1760.351995179348	349.6871052796228	1162.03961621668	1737.136902809239	385.1607272809524	1132.946310051277	1823.985306777515	404.6303135751271	1174.822140136935	1795.170040989055	439.7957098022627	1147.161944071244	2063.408776174535	685.4501843487033	1184.390387201985	2011.574932304686	703.5071769684132	1138.924983165791	2087.104057029229	793.0966635081792	1196.652702987019	2038.58376435999	809.1541304919452	1151.204599212845	
